<svg width="93" height="21" viewBox="0 0 93 21" fill="none" xmlns="http://www.w3.org/2000/svg">
<path d="M24.4913 0.825802C24.0926 0.92857 23.6207 1.06559 23.4498 1.12725L23.1406 1.23687L23.1894 1.66849C23.2139 1.90828 23.2952 2.50433 23.3603 3.00446C23.5393 4.4158 23.637 4.21712 22.4002 5.0461C21.7737 5.46402 21.2529 5.76547 21.1471 5.76547C21.0495 5.76547 20.3498 5.6079 19.6012 5.42292C18.8445 5.23108 18.0959 5.05981 17.9332 5.03925L17.6484 4.99815L17.2253 5.71066C16.5825 6.79314 16.5255 6.62872 17.8762 7.56047C18.519 7.99895 19.1455 8.45112 19.2757 8.56759L19.5117 8.77312L19.4222 9.47879C19.3734 9.86931 19.3083 10.3831 19.2839 10.6298L19.235 11.0751L17.6728 11.8013C16.3872 12.4042 16.1106 12.5618 16.0861 12.692C16.0617 12.8975 16.4198 13.932 16.6232 14.2198C16.794 14.4664 16.6638 14.4596 18.8119 14.2883C19.5442 14.2266 20.2196 14.1924 20.3253 14.2198C20.4311 14.2403 20.6834 14.4596 20.9112 14.7199C21.139 14.9734 21.4889 15.3502 21.7086 15.5489C21.9527 15.7818 22.091 15.9668 22.091 16.0833C22.091 16.1792 21.9039 16.8027 21.676 17.4672C21.4401 18.1386 21.2366 18.7484 21.2204 18.8237C21.1878 18.9402 21.2611 19.0156 21.5377 19.1732C21.9364 19.4061 23.222 19.9747 23.2545 19.9405C23.4905 19.6459 24.711 18.4195 25.1422 18.0427L25.7118 17.5426L27.0544 17.6316L28.3888 17.7207L29.2757 19.0567C29.7639 19.7898 30.1788 20.4064 30.1951 20.4201C30.2602 20.4749 31.6434 20.1529 32.0096 20.0021L32.3839 19.8446L32.3594 19.365C32.3432 19.0978 32.2781 18.4743 32.213 17.9742C32.0503 16.6519 32.034 16.7341 32.5222 16.4533C32.75 16.3231 33.2382 16.0079 33.5962 15.7544C33.9542 15.4941 34.2797 15.2886 34.3122 15.2886C34.3855 15.2886 34.8086 15.3913 36.4929 15.7955C37.9656 16.1518 37.8598 16.1792 38.3968 15.2954C38.8037 14.624 38.8444 14.5281 38.7549 14.3637C38.706 14.2677 38.1039 13.8019 37.4123 13.3291C36.68 12.8221 36.1511 12.4111 36.1267 12.322C36.1023 12.2398 36.1267 11.6917 36.1837 11.1094L36.2894 10.0474L36.8834 9.77339C37.2089 9.62266 37.9412 9.26641 38.5108 8.98551C39.6987 8.39631 39.6336 8.53333 39.2268 7.4577L38.9664 6.75889L38.2911 6.73834C37.9249 6.72463 37.0868 6.76574 36.444 6.82055C35.8013 6.88221 35.2235 6.90961 35.1585 6.88906C35.0934 6.86851 34.8899 6.66982 34.7109 6.45059C34.5238 6.2245 34.1983 5.88194 33.9868 5.68326C33.7752 5.48458 33.5555 5.27219 33.4986 5.21053C33.4172 5.11462 33.4823 4.84742 33.8973 3.63477L34.3936 2.17548L34.1332 1.99735C33.9868 1.89458 33.5311 1.66164 33.1324 1.48351L32.392 1.14781L32.0665 1.48351C30.9844 2.56599 30.1626 3.34017 29.9835 3.44294C29.7964 3.55256 29.6906 3.55941 28.4783 3.47034C27.7622 3.42238 27.1683 3.38128 27.1601 3.37443C27.1601 3.36757 26.8835 2.95651 26.5662 2.45637C26.021 1.62738 25.2968 0.620268 25.248 0.63397C25.2317 0.63397 24.8981 0.723034 24.4913 0.825802ZM29.4628 7.54677C30.1788 7.84137 31.0494 8.55389 31.3261 9.07457C31.4481 9.28696 31.5946 9.69803 31.6678 9.99263C32.2537 12.4179 29.357 14.4801 26.5011 13.6717C25.7281 13.4593 25.1504 13.0893 24.6134 12.4864C24.1089 11.9178 23.9624 11.5752 23.9055 10.8216C23.8485 10.1022 23.9787 9.49249 24.2716 9.01976C24.5401 8.59499 25.4189 7.83452 25.9234 7.58788C26.4522 7.33438 26.8591 7.27272 27.9657 7.30013C28.8607 7.32068 28.9583 7.33438 29.4628 7.54677Z" fill="#EE9A6A"/>
<path d="M47.5988 3.51117C45.6216 3.75096 43.856 4.65531 42.6111 6.0735C41.5614 7.2656 41.0488 8.71804 41.0488 10.4582C41.0488 12.2327 41.5126 13.507 42.5948 14.7402C44.7673 17.2066 48.4776 17.9671 52.7493 16.8092L53.506 16.6037L54.4987 16.8092C55.0439 16.9257 55.6785 17.0216 55.8982 17.0285L56.305 17.0353V16.6928C56.305 16.5009 56.2562 15.6103 56.1911 14.7059C56.1098 13.4179 56.1098 12.7465 56.183 11.6024C56.2562 10.424 56.2481 10.1157 56.1667 10.0335C56.0772 9.94439 55.8738 9.93069 54.7591 9.9718C54.0431 9.99235 53.0748 9.9855 52.6029 9.95124C52.0903 9.91699 51.6916 9.91699 51.6102 9.9581C51.4149 10.0403 51.4231 10.3692 51.6346 12.0066C51.7241 12.726 51.7729 13.3426 51.7322 13.37C51.6997 13.4042 51.3417 13.507 50.9349 13.6098C48.8112 14.1304 46.9967 13.7331 46.1098 12.5684C45.6379 11.9449 45.4914 11.4516 45.4914 10.4582C45.4914 9.6772 45.5158 9.50592 45.703 9.08115C46.1831 7.93701 47.0781 7.21764 48.2742 7.00525C49.5842 6.77231 50.9511 7.11487 52.0496 7.95071C52.3425 8.18365 52.6191 8.36863 52.6598 8.36863C53.0097 8.36863 54.9625 6.34069 54.9625 5.97758C54.9625 5.84056 54.2872 5.1623 53.8152 4.82659C52.2937 3.74411 49.8852 3.23713 47.5988 3.51117Z" fill="#D4DEE6"/>
<path d="M6.11876 3.6072C3.29534 4.05937 0.960125 6.02565 0.187143 8.61538C0.02441 9.14292 0 9.40326 0 10.5611C0 12.0341 0.113913 12.6096 0.602112 13.5825C1.38323 15.1445 2.96174 16.4805 4.71926 17.0765C5.7282 17.4122 6.371 17.5082 7.72982 17.5082C9.54429 17.515 10.5939 17.2752 11.8876 16.549C12.6606 16.1174 13.5475 15.3569 13.5475 15.124C13.5475 14.8773 11.8876 12.7192 11.6354 12.637C11.5622 12.6164 11.3018 12.7466 11.0008 12.9522C9.93485 13.6921 8.82013 14.0278 7.67286 13.9661C6.24081 13.8839 5.16677 13.144 4.62162 11.856C4.43447 11.4175 4.40193 11.2394 4.40193 10.5268C4.40193 9.64305 4.5077 9.19088 4.89826 8.54687C5.16677 8.10839 5.91534 7.47809 6.40354 7.28626C7.82746 6.73132 9.36528 6.97796 10.8787 8.00563C11.2286 8.23857 11.5703 8.43725 11.6273 8.43725C11.7656 8.43725 12.026 8.1495 12.5467 7.40958C13.157 6.54633 13.5475 5.89548 13.5475 5.7516C13.5475 5.54607 13.3278 5.31998 12.7501 4.91576C11.8226 4.28546 10.8543 3.90179 9.60125 3.66886C8.78758 3.51128 6.90802 3.48388 6.11876 3.6072Z" fill="#D4DEE6"/>
<path d="M82.5132 4.04573C81.1137 7.19726 77.4034 15.8091 77.1268 16.5422C76.964 16.9944 76.9966 17.0492 77.4685 17.1451C77.8265 17.2136 80.6337 17.2273 81.1056 17.1588C81.5043 17.104 81.6019 16.9738 81.903 16.0969C82.0413 15.7064 82.204 15.3433 82.2691 15.2885C82.3668 15.1994 82.7736 15.1857 84.8729 15.1857C87.1755 15.1857 87.3708 15.1925 87.4684 15.309C87.5254 15.3775 87.6719 15.7749 87.7939 16.186C87.9811 16.8094 88.0543 16.9601 88.2252 17.056C88.4042 17.152 88.7215 17.1725 90.3244 17.1931C91.5693 17.2068 92.3179 17.1931 92.5539 17.1383C92.8956 17.0629 92.8956 17.056 92.8549 16.8026C92.7573 16.1723 87.265 4.22386 86.8663 3.77854L86.7199 3.60726L84.7183 3.60041L82.7166 3.59356L82.5132 4.04573ZM85.4343 9.49239C85.6214 9.98567 85.8655 10.6913 85.9713 11.0682C86.2154 11.9382 86.2235 11.9314 84.8729 11.9314C84.3277 11.9314 83.7988 11.9108 83.693 11.8834C83.5222 11.8492 83.5059 11.8149 83.5466 11.5546C83.6035 11.2394 84.0592 10.0405 84.5474 8.9306C84.8484 8.23863 84.8566 8.23178 84.9705 8.40991C85.0356 8.51268 85.239 8.99911 85.4343 9.49239Z" fill="#D4DEE6"/>
<path d="M60.2762 3.77179C60.0402 3.79235 59.8124 3.84715 59.7636 3.88826C59.6985 3.94307 59.7066 4.92278 59.7961 7.29328C59.91 10.2804 59.91 10.9449 59.7961 13.7882C59.6904 16.6177 59.6904 16.9671 59.7961 17.063C59.9019 17.1521 60.4552 17.1658 63.8482 17.1658C67.3632 17.1726 67.8514 17.1589 68.4698 17.0493C70.8782 16.6108 72.5219 15.4804 73.6447 13.4799C74.2387 12.4248 74.3689 11.8424 74.3607 10.3557C74.3607 9.18419 74.3363 9.04032 74.141 8.47167C74.019 8.12912 73.7179 7.51251 73.482 7.10145C72.3673 5.20368 70.8132 4.29933 67.9409 3.87456C67.3795 3.79235 66.4519 3.75809 63.954 3.74439C62.1639 3.73069 60.504 3.74439 60.2762 3.77179ZM66.8099 6.73148C68.2176 6.94387 69.3648 7.81396 69.8693 9.04032C70.032 9.43083 70.0564 9.63637 70.0564 10.39C70.0483 11.0477 70.0158 11.3903 69.9018 11.6917C69.2835 13.425 67.7538 14.2883 65.5081 14.1718C64.7595 14.1376 64.3282 14.0417 64.2225 13.8978C64.1899 13.8498 64.1574 12.2672 64.1574 10.3763V6.93702L64.3445 6.8548C64.7595 6.66297 65.9637 6.60131 66.8099 6.73148Z" fill="#D4DEE6"/>
</svg>
